<?xml version="1.0" encoding="UTF-8"?> <svg xmlns="http://www.w3.org/2000/svg" viewBox="0 0 213 73"><path fill="#0072E9" d="M11.239 20.814h2.604c4.466 0 6.724 2.188 6.724 6.595v22.973c0 4.337-2.258 6.486-6.724 6.486H11.24c-2.406 0-3.96-.99-4.595-2.892v13.111H0V20.814h6.644v2.891c.644-1.92 2.189-2.891 4.595-2.891Zm2.644 28.538V28.37a2.386 2.386 0 0 0-.456-1.732 2.812 2.812 0 0 0-1.762-.416H9.02a2.585 2.585 0 0 0-1.901.574 2.782 2.782 0 0 0-.545 1.98v20.082a2.97 2.97 0 0 0 .545 1.98 2.585 2.585 0 0 0 1.9.575h2.605a2.565 2.565 0 0 0 1.763-.416c.366-.198.495-.772.495-1.644Zm22.23-28.597h1.476v5.753h-2.664c-3.08 0-4.654 1.832-4.654 5.457v24.904h-6.654V20.815h6.654v4.436a6.713 6.713 0 0 1 2.12-3.209 5.595 5.595 0 0 1 3.722-1.287Zm10.803.059h7.922c4.595 0 6.872 2.188 6.872 6.595v22.973c0 4.337-2.277 6.486-6.872 6.486h-7.922c-4.535 0-6.783-2.178-6.783-6.486V27.409c0-4.407 2.248-6.595 6.783-6.595Zm8.19 28.598V28.27a2.535 2.535 0 0 0-.446-1.762 2.634 2.634 0 0 0-1.773-.456h-4.05a2.387 2.387 0 0 0-1.733.456 2.812 2.812 0 0 0-.415 1.762v21.142a2.59 2.59 0 0 0 .416 1.772c.5.362 1.12.521 1.732.446h4.05a1.783 1.783 0 0 0 2.218-2.218ZM65.098 59.7V20.814h6.654V60.57c0 4.338-2.277 6.486-6.872 6.486h-3.377V61.82h1.317a2.585 2.585 0 0 0 1.773-.446 2.387 2.387 0 0 0 .505-1.673Zm-.159-45.758V7.386h6.932v6.556H64.94ZM82 20.814h7.228c4.634 0 6.932 2.188 6.932 6.595v13.526H81.603v8.576a2.408 2.408 0 0 0 .456 1.703c.514.359 1.14.52 1.763.455h3.426a2.575 2.575 0 0 0 1.772-.455c.356-.515.514-1.14.446-1.763v-2.97h6.496v3.891c0 4.337-2.288 6.486-6.882 6.486h-7.1c-4.595 0-6.882-2.178-6.882-6.486V27.41c.03-4.407 2.337-6.595 6.901-6.595Zm-.357 15.24h7.922V28.21a2.475 2.475 0 0 0-.416-1.703 2.437 2.437 0 0 0-1.733-.456h-3.634a2.525 2.525 0 0 0-1.763.456 2.407 2.407 0 0 0-.455 1.703v7.843h.079Zm38.788-3.862h-6.585V28.34a2.424 2.424 0 0 0-.445-1.743 2.972 2.972 0 0 0-1.773-.416h-3.178a2.605 2.605 0 0 0-1.773.416 2.497 2.497 0 0 0-.446 1.743v20.982c-.08.614.079 1.235.446 1.733.53.329 1.152.475 1.773.416h3.178a2.605 2.605 0 0 0 1.773-.416c.362-.5.521-1.12.445-1.733V45.5h6.585v4.882c0 4.337-2.307 6.486-6.931 6.486h-7.031c-4.565 0-6.931-2.178-6.931-6.486V27.409c0-4.377 2.287-6.595 6.931-6.595h7.031c4.634 0 6.931 2.188 6.931 6.595v4.783Zm17.872-5.972h-4.951v22.845a2.42 2.42 0 0 0 .416 1.733 2.634 2.634 0 0 0 1.733.416h2.792v5.694h-4.723c-4.624 0-6.932-2.189-6.932-6.496V26.25h-3.446v-5.436h3.407v-6.13h6.723v6.13h4.951l.03 5.407Zm64.039-15.556a36.41 36.41 0 0 0-51.492 51.492 36.461 36.461 0 0 0 51.165.317l.317-.317A36.394 36.394 0 0 0 213 36.41a36.39 36.39 0 0 0-10.668-25.746h.01ZM175.16 46.56h-4.248v10.348h-6.585V46.56h-16.259v-6.268l9.803-25.647h6.743L154.583 40.35h9.705V30.33h6.614v10.02h4.248v6.209h.01Zm25.092 0v10.348h-6.614V46.56h-16.23v-6.268l9.803-25.647h6.744L183.934 40.39h9.704V30.33h6.614v10.02h4.239v6.17h-4.239v.039Z"></path></svg> 